<svg width="41" height="40" viewBox="0 0 41 40" fill="none" xmlns="http://www.w3.org/2000/svg">
<path d="M30.6408 7.57959C27.6008 7.67279 27.6016 12.0464 30.6408 12.1388C33.6808 12.0456 33.68 7.67199 30.6408 7.57959ZM20.5 10.2188C15.112 10.2188 10.7444 14.598 10.7444 20C11.2584 32.9748 29.7432 32.9712 30.2552 20C30.2556 14.598 25.8876 10.2188 20.5 10.2188ZM20.5 26.3492C17.0028 26.3492 14.1676 23.5064 14.1676 20C14.5012 11.578 26.5004 11.58 26.8328 20C26.8324 23.5068 23.9972 26.3492 20.5 26.3492Z" fill="black"/>
<path d="M39.3832 12.1672C39.2424 5.50039 35.0008 1.25639 28.3324 1.11679C26.7312 0.962391 14.2696 0.959591 12.6672 1.11679C6.00036 1.25759 1.75636 5.49919 1.61676 12.1676C1.46236 13.7664 1.45916 26.232 1.61676 27.8328C1.74116 34.478 6.02116 38.7592 12.6672 38.8832C14.2684 39.0392 26.73 39.0392 28.3324 38.8832C30.3544 38.7908 31.7356 38.4696 32.944 38C37.1788 36.3084 39.248 32.5456 39.3832 27.8324C39.5376 26.2312 39.5404 13.7696 39.3832 12.1672ZM28.1764 35.4636C26.6008 35.614 14.4 35.6164 12.8232 35.4636C10.9712 35.3792 9.96516 35.0696 9.29556 34.8096C3.51596 32.1288 5.30796 26.7076 5.03556 19.2664C5.04156 17.538 5.03196 14.052 5.03596 12.3236C5.26676 7.17079 7.69356 4.78519 12.8232 4.53639C14.4008 4.38599 26.5984 4.38359 28.1764 4.53639C33.3308 4.76719 35.714 7.19399 35.9636 12.3232C36.0656 13.5548 36.1396 20.278 35.9636 23.6804C36.1536 30.0708 35.8624 35.0888 28.1764 35.4636Z" fill="black"/>
</svg>
